# xmcd
#
# Track frame offsets: 
#        160
#        13297
#        25730
#        37160
#        49582
#        61002
#        73795
#        89475
#        101542
#        119087
#        130845
#        148965
#        162235
#        171660
#        184507
#        194467
#
# Disc length: 2749 seconds
#
# Revision: 1
# Processed by: cddbd v1.5.2PL0 Copyright (c) Steve Scherf et al.
# Submitted via: ExactAudioCopyFreeDBPlugin 1.0
#
DISCID=ef0abb10
DTITLE=Various Artist - Country Classics
DYEAR=1987
DGENRE=Country
TTITLE0=Faron Young - It´s Four in the Morning
TTITLE1=Jack Scott - Burning Bridges
TTITLE2=Don Gibson - Sea of Heartbreak
TTITLE3=Johnny Paycheck - Take This Job and Shove It
TTITLE4=Porter Wagoner - Misery Loves Company
TTITLE5=Stonewall Jackson - Me and You and a Dog Named Boo
TTITLE6=Melba Montgomery - No Charge
TTITLE7=Jeannie C. Riley - Country Girl
TTITLE8=Lynn Anderson - Midnight Train to Georgia
TTITLE9=Donna Fargo - The Happiest Girl in the Whole U.S.A.
TTITLE10=David Houston - Nashville
TTITLE11=Margo Smith - Dont Break the Heart That Loves You
TTITLE12=Jimmy Dean - First Thing Every Morning
TTITLE13=Claude King - Wolverton Mountain
TTITLE14=Hank Locklin - Please Help Me, I´m Falling (in Love With You)
TTITLE15=Wanda Jackson - Walking After Midnight
EXTD=Cat: ONCD5140 Bar: 5012206514026
EXTT0=
EXTT1=
EXTT2=
EXTT3=
EXTT4=
EXTT5=
EXTT6=
EXTT7=
EXTT8=
EXTT9=
EXTT10=
EXTT11=
EXTT12=
EXTT13=
EXTT14=
EXTT15=
PLAYORDER=
